<svg width="124" height="69" viewBox="0 0 124 69" fill="none" xmlns="http://www.w3.org/2000/svg">
<path d="M43.2109 23.0762H41.7307L43.6533 17.3732H45.4869L47.4095 23.0762H45.9293L44.5909 18.8101H44.5464L43.2109 23.0762ZM43.0133 20.8318H46.1073V21.8788H43.0133V20.8318Z" fill="black"/>
<path d="M49.0085 17.3732V23.0762H47.6312V17.3732H49.0085Z" fill="black"/>
<path d="M50.7729 23.0762V17.3732H54.7462V18.4926H52.1502V19.6622H54.5431V20.7844H52.1502V21.9568H54.7462V23.0762H50.7729Z" fill="black"/>
<path d="M56.5775 20.6369V23.0762H55.217V18.799H56.5108V19.5842H56.5581C56.6527 19.3225 56.814 19.1173 57.0422 18.9688C57.2703 18.8185 57.5421 18.7433 57.8574 18.7433C58.1579 18.7433 58.4185 18.811 58.6393 18.9466C58.8619 19.0802 59.0344 19.2677 59.1568 19.5091C59.2811 19.7485 59.3423 20.0289 59.3404 20.35V23.0762H57.9799V20.6174C57.9817 20.3797 57.9214 20.1941 57.799 20.0604C57.6784 19.9268 57.5106 19.8599 57.2954 19.8599C57.1526 19.8599 57.0264 19.8915 56.917 19.9546C56.8094 20.0159 56.7259 20.1041 56.6666 20.2192C56.6091 20.3343 56.5794 20.4735 56.5775 20.6369Z" fill="black"/>
<path d="M61.7832 24.7693C61.377 24.7693 61.0292 24.7127 60.7398 24.5995C60.4505 24.4862 60.2232 24.3312 60.0581 24.1344C59.8931 23.9376 59.7938 23.7149 59.7604 23.4661L61.0487 23.3937C61.0728 23.481 61.1173 23.5571 61.1822 23.622C61.249 23.687 61.3353 23.7371 61.441 23.7724C61.5486 23.8077 61.6747 23.8253 61.8194 23.8253C62.0475 23.8253 62.2358 23.7696 62.3842 23.6582C62.5345 23.5487 62.6096 23.3566 62.6096 23.0818V22.3299H62.5623C62.5085 22.4618 62.4269 22.5796 62.3174 22.6836C62.208 22.7876 62.0717 22.8692 61.9084 22.9287C61.747 22.9881 61.5616 23.0178 61.352 23.0178C61.0403 23.0178 60.7547 22.9454 60.495 22.8006C60.2371 22.6539 60.0303 22.4274 59.8745 22.1211C59.7206 21.8129 59.6436 21.4166 59.6436 20.932C59.6436 20.4326 59.7233 20.0214 59.8829 19.6984C60.0424 19.3735 60.2511 19.1331 60.5089 18.9772C60.7686 18.8212 61.0477 18.7433 61.3464 18.7433C61.5708 18.7433 61.7628 18.7823 61.9223 18.8602C62.0837 18.9363 62.2163 19.0347 62.3202 19.1554C62.4241 19.2761 62.5029 19.4014 62.5567 19.5313H62.5957V18.799H63.9507V23.093C63.9507 23.455 63.8598 23.7603 63.678 24.0091C63.4962 24.2579 63.2421 24.4463 62.9156 24.5744C62.5892 24.7044 62.2117 24.7693 61.7832 24.7693ZM61.825 22.0264C61.99 22.0264 62.131 21.9828 62.2479 21.8955C62.3647 21.8083 62.4547 21.683 62.5178 21.5196C62.5808 21.3562 62.6124 21.1604 62.6124 20.932C62.6124 20.7 62.5808 20.5004 62.5178 20.3333C62.4566 20.1644 62.3666 20.0344 62.2479 19.9435C62.131 19.8525 61.99 19.807 61.825 19.807C61.6562 19.807 61.5133 19.8534 61.3965 19.9463C61.2796 20.0391 61.1906 20.17 61.1294 20.3389C61.07 20.506 61.0403 20.7037 61.0403 20.932C61.0403 21.1604 61.0709 21.3562 61.1321 21.5196C61.1934 21.683 61.2815 21.8083 61.3965 21.8955C61.5133 21.9828 61.6562 22.0264 61.825 22.0264Z" fill="black"/>
<path d="M64.4263 23.0762V18.799H65.7869V23.0762H64.4263ZM65.108 18.3005C64.917 18.3005 64.7528 18.2374 64.6155 18.1111C64.4783 17.9831 64.4096 17.829 64.4096 17.6489C64.4096 17.4707 64.4783 17.3184 64.6155 17.1922C64.7528 17.0641 64.917 17.0001 65.108 17.0001C65.3009 17.0001 65.4651 17.0641 65.6005 17.1922C65.7378 17.3184 65.8064 17.4707 65.8064 17.6489C65.8064 17.829 65.7378 17.9831 65.6005 18.1111C65.4651 18.2374 65.3009 18.3005 65.108 18.3005Z" fill="black"/>
<path d="M67.6217 20.6369V23.0762H66.2612V18.799H67.555V19.5842H67.6023C67.6969 19.3225 67.8583 19.1173 68.0864 18.9688C68.3146 18.8185 68.5863 18.7433 68.9016 18.7433C69.2021 18.7433 69.4628 18.811 69.6835 18.9466C69.9061 19.0802 70.0786 19.2677 70.201 19.5091C70.3253 19.7485 70.3865 20.0289 70.3846 20.35V23.0762H69.0241V20.6174C69.0259 20.3797 68.9656 20.1941 68.8432 20.0604C68.7226 19.9268 68.5548 19.8599 68.3396 19.8599C68.1968 19.8599 68.0706 19.8915 67.9612 19.9546C67.8536 20.0159 67.7701 20.1041 67.7108 20.2192C67.6533 20.3343 67.6236 20.4735 67.6217 20.6369Z" fill="black"/>
<path d="M72.833 23.157C72.386 23.157 72.0001 23.0688 71.6755 22.8925C71.3528 22.7142 71.1042 22.4608 70.9299 22.1322C70.7573 21.8018 70.6711 21.4091 70.6711 20.9543C70.6711 20.5125 70.7583 20.1263 70.9326 19.7959C71.107 19.4636 71.3528 19.2055 71.67 19.0217C71.9872 18.8361 72.3609 18.7433 72.7913 18.7433C73.0955 18.7433 73.3737 18.7906 73.626 18.8853C73.8782 18.98 74.0962 19.1201 74.2798 19.3058C74.4635 19.4914 74.6063 19.7207 74.7083 19.9936C74.8103 20.2646 74.8614 20.5756 74.8614 20.9265V21.2662H71.1469V20.4753H73.5954C73.5935 20.3305 73.5592 20.2015 73.4924 20.0883C73.4256 19.975 73.3338 19.8868 73.217 19.8237C73.102 19.7588 72.9693 19.7263 72.8191 19.7263C72.667 19.7263 72.5306 19.7606 72.4101 19.8293C72.2895 19.8961 72.194 19.988 72.1235 20.105C72.053 20.2201 72.0159 20.351 72.0122 20.4976V21.3024C72.0122 21.4769 72.0465 21.6301 72.1151 21.7619C72.1838 21.8918 72.2812 21.993 72.4073 22.0654C72.5334 22.1378 72.6837 22.174 72.858 22.174C72.9786 22.174 73.0881 22.1573 73.1864 22.1239C73.2847 22.0905 73.3691 22.0413 73.4396 21.9763C73.51 21.9113 73.5629 21.8315 73.5982 21.7368L74.8474 21.773C74.7955 22.0533 74.6814 22.2975 74.5052 22.5054C74.3308 22.7115 74.1018 22.872 73.818 22.9871C73.5342 23.1004 73.2058 23.157 72.833 23.157Z" fill="black"/>
<path d="M77.1622 23.157C76.7152 23.157 76.3294 23.0688 76.0048 22.8925C75.682 22.7142 75.4335 22.4608 75.2591 22.1322C75.0866 21.8018 75.0003 21.4091 75.0003 20.9543C75.0003 20.5125 75.0875 20.1263 75.2619 19.7959C75.4362 19.4636 75.682 19.2055 75.9992 19.0217C76.3164 18.8361 76.6902 18.7433 77.1205 18.7433C77.4247 18.7433 77.7029 18.7906 77.9552 18.8853C78.2075 18.98 78.4254 19.1201 78.6091 19.3058C78.7927 19.4914 78.9355 19.7207 79.0376 19.9936C79.1396 20.2646 79.1906 20.5756 79.1906 20.9265V21.2662H75.4761V20.4753H77.9246C77.9227 20.3305 77.8884 20.2015 77.8217 20.0883C77.7549 19.975 77.6631 19.8868 77.5462 19.8237C77.4312 19.7588 77.2986 19.7263 77.1483 19.7263C76.9962 19.7263 76.8599 19.7606 76.7393 19.8293C76.6187 19.8961 76.5232 19.988 76.4527 20.105C76.3822 20.2201 76.3451 20.351 76.3414 20.4976V21.3024C76.3414 21.4769 76.3757 21.6301 76.4444 21.7619C76.513 21.8918 76.6104 21.993 76.7365 22.0654C76.8627 22.1378 77.0129 22.174 77.1873 22.174C77.3078 22.174 77.4173 22.1573 77.5156 22.1239C77.6139 22.0905 77.6983 22.0413 77.7688 21.9763C77.8393 21.9113 77.8921 21.8315 77.9274 21.7368L79.1767 21.773C79.1247 22.0533 79.0107 22.2975 78.8344 22.5054C78.6601 22.7115 78.431 22.872 78.1472 22.9871C77.8634 23.1004 77.5351 23.157 77.1622 23.157Z" fill="black"/>
<path d="M79.4937 23.0762V18.799H80.8154V19.5787H80.8599C80.9378 19.2965 81.0648 19.0867 81.2411 18.9493C81.4173 18.8101 81.6222 18.7405 81.856 18.7405C81.919 18.7405 81.9839 18.7451 82.0507 18.7544C82.1175 18.7618 82.1796 18.7739 82.2371 18.7906V19.9741C82.1722 19.9518 82.0869 19.9342 81.9812 19.9212C81.8773 19.9082 81.7845 19.9017 81.7029 19.9017C81.5415 19.9017 81.3959 19.9379 81.2661 20.0103C81.1381 20.0808 81.037 20.1802 80.9628 20.3083C80.8905 20.4345 80.8543 20.583 80.8543 20.7538V23.0762H79.4937Z" fill="black"/>
<path d="M13.0129 46.6013L8.68689 31.7238H12.6572L14.9001 41.4727H15.0234L17.5856 31.7238H20.8229L23.3851 41.4945H23.5085L25.7586 31.7238H29.7216L25.4029 46.6013H21.9407L19.2623 37.5789H19.1462L16.4679 46.6013H13.0129Z" fill="black"/>
<path d="M34.1507 46.812C32.9797 46.812 31.9732 46.5723 31.1312 46.0928C30.2941 45.6085 29.6481 44.9354 29.1932 44.0733C28.7432 43.2064 28.5182 42.2015 28.5182 41.0586C28.5182 39.9108 28.7432 38.9059 29.1932 38.0439C29.6481 37.177 30.2941 36.5038 31.1312 36.0244C31.9732 35.5401 32.9797 35.2979 34.1507 35.2979C35.3217 35.2979 36.3258 35.5401 37.1629 36.0244C38.0049 36.5038 38.6509 37.177 39.1009 38.0439C39.5558 38.9059 39.7832 39.9108 39.7832 41.0586C39.7832 42.2015 39.5558 43.2064 39.1009 44.0733C38.6509 44.9354 38.0049 45.6085 37.1629 46.0928C36.3258 46.5723 35.3217 46.812 34.1507 46.812ZM34.1725 44.1314C34.5983 44.1314 34.9588 44.0007 35.254 43.7392C35.5491 43.4776 35.7741 43.1144 35.929 42.6495C36.0887 42.1846 36.1685 41.647 36.1685 41.0368C36.1685 40.4169 36.0887 39.8745 35.929 39.4096C35.7741 38.9447 35.5491 38.5814 35.254 38.3199C34.9588 38.0584 34.5983 37.9276 34.1725 37.9276C33.7321 37.9276 33.3595 38.0584 33.0547 38.3199C32.7547 38.5814 32.5248 38.9447 32.3651 39.4096C32.2103 39.8745 32.1329 40.4169 32.1329 41.0368C32.1329 41.647 32.2103 42.1846 32.3651 42.6495C32.5248 43.1144 32.7547 43.4776 33.0547 43.7392C33.3595 44.0007 33.7321 44.1314 34.1725 44.1314Z" fill="black"/>
<path d="M40.5794 46.6013V35.4432H44.0271V37.4772H44.1433C44.3465 36.7411 44.678 36.1939 45.1377 35.8355C45.5974 35.4723 46.1321 35.2907 46.7418 35.2907C46.9063 35.2907 47.0757 35.3028 47.2499 35.327C47.4241 35.3464 47.5862 35.3778 47.7362 35.4214V38.5088C47.5668 38.4507 47.3442 38.4047 47.0684 38.3708C46.7974 38.3369 46.5555 38.3199 46.3426 38.3199C45.9216 38.3199 45.5417 38.4144 45.203 38.6032C44.8691 38.7873 44.6054 39.0464 44.4118 39.3805C44.2231 39.7098 44.1288 40.0973 44.1288 40.5428V46.6013H40.5794Z" fill="black"/>
<path d="M51.7098 31.7238V46.6013H48.1604V31.7238H51.7098Z" fill="black"/>
<path d="M57.0189 46.7612C56.1963 46.7612 55.4487 46.5481 54.7761 46.1219C54.1035 45.6957 53.5663 45.0564 53.1647 44.2041C52.7631 43.3517 52.5623 42.2935 52.5623 41.0295C52.5623 39.7171 52.7703 38.6371 53.1865 37.7896C53.6026 36.9421 54.147 36.3149 54.8196 35.9081C55.4971 35.5013 56.2253 35.2979 57.0044 35.2979C57.5899 35.2979 58.0907 35.3996 58.5069 35.603C58.923 35.8016 59.2666 36.0583 59.5375 36.3731C59.8085 36.6878 60.0142 37.0147 60.1545 37.3537H60.2271V31.7238H63.7764V46.6013H60.2634V44.7925H60.1545C60.0045 45.1363 59.7916 45.4584 59.5158 45.7587C59.24 46.0589 58.894 46.3011 58.4778 46.4851C58.0665 46.6691 57.5802 46.7612 57.0189 46.7612ZM58.2528 43.9934C58.6835 43.9934 59.0512 43.8723 59.3561 43.6302C59.6609 43.3832 59.8956 43.0369 60.0602 42.5914C60.2247 42.1458 60.3069 41.6228 60.3069 41.0223C60.3069 40.4121 60.2247 39.8866 60.0602 39.4459C59.9005 39.0052 59.6658 38.6662 59.3561 38.4289C59.0512 38.1916 58.6835 38.0729 58.2528 38.0729C57.8125 38.0729 57.4399 38.194 57.135 38.4361C56.8302 38.6783 56.5979 39.0197 56.4382 39.4604C56.2834 39.9011 56.206 40.4217 56.206 41.0223C56.206 41.6228 56.2858 42.1458 56.4455 42.5914C56.6052 43.0369 56.835 43.3832 57.135 43.6302C57.4399 43.8723 57.8125 43.9934 58.2528 43.9934Z" fill="black"/>
<path d="M67.9533 31.7238V33.3801C67.9533 33.8402 67.8613 34.3051 67.6774 34.7749C67.4984 35.2398 67.2637 35.6757 66.9734 36.0825C66.683 36.4893 66.3758 36.8331 66.0516 37.114L64.5418 36.2859C64.7644 35.9178 64.9628 35.5037 65.137 35.0437C65.3112 34.5787 65.3983 34.0267 65.3983 33.3874V31.7238H67.9533Z" fill="black"/>
<path d="M77.3235 38.8502L74.0644 38.9374C74.0306 38.7049 73.9386 38.4991 73.7886 38.3199C73.6386 38.1359 73.4426 37.993 73.2007 37.8913C72.9636 37.7848 72.6878 37.7315 72.3732 37.7315C71.9619 37.7315 71.6111 37.8138 71.3208 37.9785C71.0353 38.1431 70.895 38.3659 70.8998 38.6468C70.895 38.8647 70.9821 39.0536 71.1611 39.2134C71.345 39.3733 71.6716 39.5016 72.141 39.5984L74.2895 40.0053C75.4024 40.2183 76.2299 40.5719 76.7718 41.0659C77.3186 41.5598 77.5944 42.2136 77.5993 43.0272C77.5944 43.7924 77.367 44.4583 76.917 45.025C76.4718 45.5916 75.8621 46.0323 75.0879 46.3471C74.3137 46.657 73.4281 46.812 72.4313 46.812C70.8393 46.812 69.5836 46.4851 68.6642 45.8313C67.7497 45.1727 67.2271 44.2913 67.0964 43.1871L70.6022 43.0999C70.6796 43.5067 70.8804 43.8166 71.2046 44.0297C71.5289 44.2428 71.9426 44.3494 72.4458 44.3494C72.9007 44.3494 73.2709 44.2646 73.5564 44.0951C73.8419 43.9256 73.987 43.7004 73.9919 43.4195C73.987 43.1677 73.8757 42.9667 73.658 42.8166C73.4402 42.6616 73.0991 42.5405 72.6345 42.4534L70.6893 42.0829C69.5715 41.8795 68.7392 41.5041 68.1924 40.9569C67.6456 40.4048 67.3747 39.7026 67.3795 38.8502C67.3747 38.1044 67.573 37.4676 67.9747 36.9397C68.3763 36.407 68.9473 36.0001 69.6876 35.7193C70.428 35.4384 71.3014 35.2979 72.3079 35.2979C73.8177 35.2979 75.008 35.6151 75.879 36.2496C76.75 36.8791 77.2315 37.746 77.3235 38.8502Z" fill="black"/>
<path d="M81.6941 46.6013V31.7238H91.8413V34.6441H85.287V37.6952H91.1953V40.6227H85.287V46.6013H81.6941Z" fill="black"/>
<path d="M95.5917 46.7902C94.8804 46.7902 94.2489 46.6716 93.6972 46.4343C93.1504 46.1921 92.7174 45.8289 92.398 45.3446C92.0835 44.8555 91.9262 44.2428 91.9262 43.5067C91.9262 42.8868 92.0351 42.3638 92.2528 41.9376C92.4706 41.5114 92.7706 41.1651 93.1529 40.8988C93.5351 40.6324 93.9755 40.4314 94.4739 40.2958C94.9723 40.1554 95.5046 40.061 96.0707 40.0125C96.7046 39.9544 97.2151 39.8939 97.6022 39.8309C97.9893 39.7631 98.27 39.6687 98.4442 39.5476C98.6232 39.4217 98.7128 39.2449 98.7128 39.0173V38.981C98.7128 38.6081 98.5845 38.3199 98.3281 38.1165C98.0716 37.9131 97.7256 37.8114 97.2901 37.8114C96.8207 37.8114 96.4433 37.9131 96.1578 38.1165C95.8723 38.3199 95.6909 38.6008 95.6134 38.9592L92.3399 38.843C92.4367 38.1649 92.6859 37.5596 93.0875 37.0269C93.494 36.4893 94.0505 36.0679 94.757 35.7628C95.4683 35.4529 96.3223 35.2979 97.3192 35.2979C98.0305 35.2979 98.6861 35.3827 99.2862 35.5522C99.8862 35.7168 100.409 35.959 100.854 36.2786C101.299 36.5934 101.643 36.9808 101.885 37.4409C102.131 37.901 102.255 38.4265 102.255 39.0173V46.6013H98.916V45.0468H98.8289C98.6305 45.4245 98.3765 45.7441 98.0668 46.0057C97.7619 46.2672 97.4014 46.4633 96.9853 46.5941C96.574 46.7248 96.1094 46.7902 95.5917 46.7902ZM96.6877 44.4656C97.07 44.4656 97.4135 44.3881 97.7184 44.2331C98.0281 44.0782 98.2748 43.8651 98.4587 43.5939C98.6426 43.3178 98.7346 42.9982 98.7346 42.635V41.5744C98.6329 41.6276 98.5095 41.6761 98.3644 41.7197C98.224 41.7632 98.0692 41.8044 97.8998 41.8432C97.7305 41.8819 97.5563 41.9158 97.3772 41.9449C97.1982 41.9739 97.0264 42.0005 96.8619 42.0248C96.528 42.078 96.2425 42.1604 96.0054 42.2717C95.7731 42.3831 95.5941 42.5284 95.4683 42.7076C95.3473 42.882 95.2868 43.0902 95.2868 43.3324C95.2868 43.7004 95.4175 43.9813 95.6788 44.175C95.9449 44.3687 96.2812 44.4656 96.6877 44.4656Z" fill="black"/>
<path d="M103.403 46.6013V35.4432H106.952V46.6013H103.403ZM105.181 34.1429C104.683 34.1429 104.255 33.9782 103.897 33.6489C103.539 33.3147 103.36 32.9128 103.36 32.443C103.36 31.9781 103.539 31.581 103.897 31.2516C104.255 30.9175 104.683 30.7504 105.181 30.7504C105.685 30.7504 106.113 30.9175 106.466 31.2516C106.824 31.581 107.003 31.9781 107.003 32.443C107.003 32.9128 106.824 33.3147 106.466 33.6489C106.113 33.9782 105.685 34.1429 105.181 34.1429Z" fill="black"/>
<path d="M108.19 46.6013V35.4432H111.637V37.4772H111.754C111.957 36.7411 112.288 36.1939 112.748 35.8355C113.208 35.4723 113.742 35.2907 114.352 35.2907C114.517 35.2907 114.686 35.3028 114.86 35.327C115.034 35.3464 115.196 35.3778 115.346 35.4214V38.5088C115.177 38.4507 114.954 38.4047 114.679 38.3708C114.408 38.3369 114.166 38.3199 113.953 38.3199C113.532 38.3199 113.152 38.4144 112.813 38.6032C112.479 38.7873 112.216 39.0464 112.022 39.3805C111.833 39.7098 111.739 40.0973 111.739 40.5428V46.6013H108.19Z" fill="black"/>
<path d="M85.8462 20.1782H124V21.542H85.8462V20.1782Z" fill="black"/>
<path d="M0 20.1782H38.1538V21.542H0V20.1782Z" fill="black"/>
<path d="M0 55.6363H124V57.0001H0V55.6363Z" fill="black"/>
<path d="M122.637 21.542H124V57.0001H122.637V21.542Z" fill="black"/>
<path d="M0 21.542H1.36264V57.0001H0V21.542Z" fill="black"/>
<path d="M10.6531 68.0898C10.4351 68.0898 10.2301 68.0578 10.0381 67.9938C9.84808 67.9298 9.68408 67.8318 9.54608 67.6998C9.40808 67.5658 9.30708 67.3958 9.24308 67.1898C9.17908 66.9838 9.16508 66.7388 9.20108 66.4548H9.75008C9.73408 66.6708 9.74808 66.8508 9.79208 66.9948C9.83808 67.1368 9.90408 67.2508 9.99008 67.3368C10.0781 67.4208 10.1791 67.4808 10.2931 67.5168C10.4071 67.5528 10.5251 67.5708 10.6471 67.5708C10.8151 67.5708 10.9661 67.5408 11.1001 67.4808C11.2361 67.4188 11.3441 67.3088 11.4241 67.1508C11.5041 66.9908 11.5441 66.7648 11.5441 66.4728V63.6378H12.1231V66.4398C12.1231 66.8518 12.0591 67.1788 11.9311 67.4208C11.8051 67.6608 11.6311 67.8328 11.4091 67.9368C11.1891 68.0388 10.9371 68.0898 10.6531 68.0898Z" fill="black"/>
<path d="M14.0947 68.0658C13.8107 68.0658 13.5807 67.9698 13.4047 67.7778C13.2287 67.5858 13.1407 67.3178 13.1407 66.9738V64.7238H13.6957V66.8598C13.6957 67.0878 13.7407 67.2588 13.8307 67.3728C13.9207 67.4868 14.0667 67.5438 14.2687 67.5438C14.4467 67.5438 14.6017 67.4958 14.7337 67.3998C14.8677 67.3018 14.9797 67.1668 15.0697 66.9948V64.7238H15.6307V67.9998H15.1507L15.0877 66.8628L15.1477 67.0128C15.1237 67.2048 15.0697 67.3808 14.9857 67.5408C14.9037 67.6988 14.7887 67.8258 14.6407 67.9218C14.4947 68.0178 14.3127 68.0658 14.0947 68.0658Z" fill="black"/>
<path d="M16.7714 67.9998V64.7208H17.2544L17.3114 65.9088L17.2544 65.7078C17.2984 65.3698 17.4124 65.1108 17.5964 64.9308C17.7804 64.7488 18.0214 64.6578 18.3194 64.6578C18.6234 64.6578 18.8554 64.7558 19.0154 64.9518C19.1774 65.1478 19.2584 65.4298 19.2584 65.7978V67.9998H18.7004V65.9808C18.7004 65.7008 18.6544 65.4978 18.5624 65.3718C18.4724 65.2438 18.3254 65.1798 18.1214 65.1798C17.9514 65.1798 17.7974 65.2288 17.6594 65.3268C17.5214 65.4228 17.4114 65.5568 17.3294 65.7288V67.9998H16.7714Z" fill="black"/>
<path d="M21.695 68.0448C21.425 68.0448 21.1791 67.9798 20.9571 67.8498C20.7371 67.7198 20.5611 67.5288 20.4291 67.2768C20.2991 67.0228 20.2341 66.7128 20.2341 66.3468C20.2341 65.9928 20.295 65.6898 20.417 65.4378C20.541 65.1858 20.71 64.9938 20.924 64.8618C21.14 64.7278 21.385 64.6608 21.659 64.6608C22.059 64.6608 22.38 64.7938 22.622 65.0598C22.864 65.3238 22.9851 65.6978 22.9851 66.1818C22.9851 66.2458 22.983 66.2988 22.979 66.3408C22.975 66.3828 22.9721 66.4268 22.9701 66.4728H20.78C20.784 66.7188 20.8291 66.9218 20.9151 67.0818C21.0031 67.2418 21.116 67.3618 21.254 67.4418C21.394 67.5198 21.544 67.5588 21.704 67.5588C21.9 67.5588 22.055 67.5208 22.169 67.4448C22.283 67.3688 22.359 67.2438 22.397 67.0698H22.9221C22.9021 67.2738 22.838 67.4488 22.73 67.5948C22.624 67.7388 22.483 67.8498 22.307 67.9278C22.131 68.0058 21.927 68.0448 21.695 68.0448ZM20.78 66.2658C20.796 66.1818 20.831 66.1258 20.885 66.0978C20.939 66.0678 21.012 66.0528 21.104 66.0528H22.421C22.419 65.7548 22.355 65.5298 22.229 65.3778C22.103 65.2238 21.9151 65.1468 21.6651 65.1468C21.3771 65.1468 21.158 65.2468 21.008 65.4468C20.86 65.6468 20.784 65.9198 20.78 66.2658Z" fill="black"/>
<path d="M28.8274 68.0898C28.6114 68.0898 28.4094 68.0618 28.2214 68.0058C28.0334 67.9518 27.8684 67.8678 27.7264 67.7538C27.5864 67.6378 27.4784 67.4908 27.4024 67.3128C27.3284 67.1348 27.2954 66.9228 27.3034 66.6768H27.8764C27.8744 66.9628 27.9524 67.1878 28.1104 67.3518C28.2684 67.5138 28.5074 67.5938 28.8274 67.5918C29.1034 67.5898 29.3294 67.5218 29.5054 67.3878C29.6834 67.2538 29.7724 67.0668 29.7724 66.8268C29.7724 66.5288 29.6824 66.3148 29.5024 66.1848C29.3244 66.0548 29.0914 65.9898 28.8034 65.9898H28.3234V65.4918H28.8124C28.9744 65.4918 29.1144 65.4578 29.2324 65.3898C29.3504 65.3198 29.4414 65.2278 29.5054 65.1138C29.5694 64.9978 29.6014 64.8728 29.6014 64.7388C29.6014 64.5188 29.5324 64.3488 29.3944 64.2288C29.2584 64.1068 29.0694 64.0458 28.8274 64.0458C28.5834 64.0438 28.3874 64.1118 28.2394 64.2498C28.0914 64.3858 28.0264 64.5988 28.0444 64.8888H27.4684C27.4644 64.5848 27.5164 64.3338 27.6244 64.1358C27.7324 63.9378 27.8894 63.7908 28.0954 63.6948C28.3014 63.5968 28.5464 63.5478 28.8304 63.5478C29.1304 63.5478 29.3794 63.5968 29.5774 63.6948C29.7754 63.7928 29.9234 63.9298 30.0214 64.1058C30.1194 64.2818 30.1684 64.4858 30.1684 64.7178C30.1684 64.8638 30.1394 65.0088 30.0814 65.1528C30.0234 65.2948 29.9304 65.4188 29.8024 65.5248C29.6764 65.6288 29.5084 65.6968 29.2984 65.7288C29.6344 65.7548 29.8914 65.8608 30.0694 66.0468C30.2494 66.2328 30.3394 66.4918 30.3394 66.8238C30.3394 67.0958 30.2754 67.3268 30.1474 67.5168C30.0214 67.7048 29.8444 67.8478 29.6164 67.9458C29.3904 68.0418 29.1274 68.0898 28.8274 68.0898Z" fill="black"/>
<path d="M31.243 66.0858V65.6118H33.529V66.0858H31.243Z" fill="black"/>
<path d="M35.9807 68.0898C35.6527 68.0898 35.3737 68.0258 35.1437 67.8978C34.9137 67.7678 34.7417 67.5998 34.6277 67.3938C34.5157 67.1858 34.4707 66.9658 34.4927 66.7338H35.0627C35.0587 66.8678 35.0867 66.9988 35.1467 67.1268C35.2087 67.2548 35.3097 67.3608 35.4497 67.4448C35.5897 67.5268 35.7747 67.5678 36.0047 67.5678C36.1707 67.5678 36.3237 67.5378 36.4637 67.4778C36.6057 67.4158 36.7197 67.3158 36.8057 67.1778C36.8917 67.0398 36.9347 66.8558 36.9347 66.6258C36.9347 66.3218 36.8557 66.0908 36.6977 65.9328C36.5397 65.7748 36.3097 65.6958 36.0077 65.6958C35.8137 65.6958 35.6327 65.7278 35.4647 65.7918C35.2967 65.8558 35.1537 65.9418 35.0357 66.0498L34.5797 65.8818L34.8707 63.6378H37.3007V64.1538H35.3687L35.0777 65.7378C35.1597 65.5678 35.2967 65.4378 35.4887 65.3478C35.6807 65.2558 35.9107 65.2098 36.1787 65.2098C36.3487 65.2098 36.5137 65.2338 36.6737 65.2818C36.8337 65.3278 36.9767 65.4038 37.1027 65.5098C37.2307 65.6158 37.3317 65.7578 37.4057 65.9358C37.4817 66.1118 37.5197 66.3288 37.5197 66.5868C37.5197 66.8868 37.4577 67.1498 37.3337 67.3758C37.2097 67.6018 37.0327 67.7778 36.8027 67.9038C36.5747 68.0278 36.3007 68.0898 35.9807 68.0898Z" fill="black"/>
<path d="M41.613 67.9998C41.675 67.9278 41.729 67.8648 41.775 67.8108C41.823 67.7568 41.871 67.7038 41.919 67.6518C41.967 67.5978 42.022 67.5378 42.084 67.4718C42.146 67.4058 42.221 67.3248 42.309 67.2288C42.397 67.1328 42.505 67.0148 42.633 66.8748C42.761 66.7348 42.915 66.5638 43.095 66.3618C43.287 66.1478 43.45 65.9588 43.584 65.7948C43.718 65.6288 43.82 65.4698 43.89 65.3178C43.96 65.1658 43.995 65.0038 43.995 64.8318C43.995 64.5958 43.93 64.4058 43.8 64.2618C43.672 64.1178 43.474 64.0458 43.206 64.0458C43.052 64.0458 42.909 64.0748 42.777 64.1328C42.645 64.1908 42.538 64.2848 42.456 64.4148C42.376 64.5448 42.333 64.7188 42.327 64.9368C42.325 64.9628 42.325 64.9908 42.327 65.0208C42.329 65.0488 42.331 65.0778 42.333 65.1078H41.784C41.778 65.0718 41.773 65.0358 41.769 64.9998C41.767 64.9638 41.766 64.9298 41.766 64.8978C41.766 64.6658 41.803 64.4658 41.877 64.2978C41.951 64.1278 42.054 63.9878 42.186 63.8778C42.318 63.7658 42.472 63.6828 42.648 63.6288C42.826 63.5748 43.017 63.5478 43.221 63.5478C43.653 63.5478 43.985 63.6598 44.217 63.8838C44.451 64.1058 44.568 64.4108 44.568 64.7988C44.568 65.0248 44.53 65.2288 44.454 65.4108C44.378 65.5908 44.274 65.7648 44.142 65.9328C44.01 66.0988 43.86 66.2758 43.692 66.4638C43.526 66.6498 43.385 66.8058 43.269 66.9318C43.153 67.0578 43.055 67.1628 42.975 67.2468C42.897 67.3288 42.831 67.3998 42.777 67.4598C42.725 67.5178 42.679 67.5738 42.639 67.6278C42.701 67.5638 42.775 67.5268 42.861 67.5168C42.947 67.5048 43.065 67.4988 43.215 67.4988H44.637V67.9998H41.613Z" fill="black"/>
<path d="M46.7766 68.0898C46.4426 68.0898 46.1626 68.0128 45.9366 67.8588C45.7126 67.7028 45.5446 67.4568 45.4326 67.1208C45.3206 66.7828 45.2646 66.3408 45.2646 65.7948C45.2646 65.2568 45.3206 64.8238 45.4326 64.4958C45.5446 64.1658 45.7126 63.9258 45.9366 63.7758C46.1626 63.6258 46.4426 63.5508 46.7766 63.5508C47.1126 63.5508 47.3926 63.6258 47.6166 63.7758C47.8406 63.9258 48.0086 64.1658 48.1206 64.4958C48.2326 64.8238 48.2886 65.2568 48.2886 65.7948C48.2886 66.3408 48.2326 66.7828 48.1206 67.1208C48.0086 67.4568 47.8406 67.7028 47.6166 67.8588C47.3926 68.0128 47.1126 68.0898 46.7766 68.0898ZM46.7766 67.5918C46.9306 67.5918 47.0666 67.5628 47.1846 67.5048C47.3046 67.4468 47.4046 67.3498 47.4846 67.2138C47.5646 67.0778 47.6246 66.8948 47.6646 66.6648C47.7066 66.4328 47.7276 66.1428 47.7276 65.7948C47.7276 65.4528 47.7066 65.1698 47.6646 64.9458C47.6246 64.7198 47.5636 64.5418 47.4816 64.4118C47.4016 64.2798 47.3026 64.1868 47.1846 64.1328C47.0666 64.0768 46.9306 64.0488 46.7766 64.0488C46.6226 64.0488 46.4866 64.0768 46.3686 64.1328C46.2506 64.1868 46.1506 64.2798 46.0686 64.4118C45.9886 64.5418 45.9276 64.7198 45.8856 64.9458C45.8456 65.1698 45.8256 65.4528 45.8256 65.7948C45.8256 66.1428 45.8456 66.4328 45.8856 66.6648C45.9276 66.8948 45.9886 67.0778 46.0686 67.2138C46.1506 67.3498 46.2506 67.4468 46.3686 67.5048C46.4866 67.5628 46.6226 67.5918 46.7766 67.5918ZM46.7766 66.2208C46.6706 66.2188 46.5946 66.1828 46.5486 66.1128C46.5046 66.0408 46.4826 65.9388 46.4826 65.8068C46.4826 65.6768 46.5046 65.5758 46.5486 65.5038C46.5946 65.4318 46.6706 65.3958 46.7766 65.3958C46.8826 65.3958 46.9576 65.4318 47.0016 65.5038C47.0476 65.5758 47.0706 65.6768 47.0706 65.8068C47.0706 65.9388 47.0476 66.0408 47.0016 66.1128C46.9576 66.1828 46.8826 66.2188 46.7766 66.2208Z" fill="black"/>
<path d="M48.8083 67.9998C48.8703 67.9278 48.9243 67.8648 48.9703 67.8108C49.0183 67.7568 49.0663 67.7038 49.1143 67.6518C49.1623 67.5978 49.2173 67.5378 49.2793 67.4718C49.3413 67.4058 49.4163 67.3248 49.5043 67.2288C49.5923 67.1328 49.7003 67.0148 49.8283 66.8748C49.9563 66.7348 50.1103 66.5638 50.2903 66.3618C50.4823 66.1478 50.6453 65.9588 50.7793 65.7948C50.9133 65.6288 51.0153 65.4698 51.0853 65.3178C51.1553 65.1658 51.1903 65.0038 51.1903 64.8318C51.1903 64.5958 51.1253 64.4058 50.9953 64.2618C50.8673 64.1178 50.6693 64.0458 50.4013 64.0458C50.2473 64.0458 50.1043 64.0748 49.9723 64.1328C49.8403 64.1908 49.7333 64.2848 49.6513 64.4148C49.5713 64.5448 49.5283 64.7188 49.5223 64.9368C49.5203 64.9628 49.5203 64.9908 49.5223 65.0208C49.5243 65.0488 49.5263 65.0778 49.5283 65.1078H48.9793C48.9733 65.0718 48.9683 65.0358 48.9643 64.9998C48.9623 64.9638 48.9613 64.9298 48.9613 64.8978C48.9613 64.6658 48.9983 64.4658 49.0723 64.2978C49.1463 64.1278 49.2493 63.9878 49.3813 63.8778C49.5133 63.7658 49.6673 63.6828 49.8433 63.6288C50.0213 63.5748 50.2123 63.5478 50.4163 63.5478C50.8483 63.5478 51.1803 63.6598 51.4123 63.8838C51.6463 64.1058 51.7633 64.4108 51.7633 64.7988C51.7633 65.0248 51.7253 65.2288 51.6493 65.4108C51.5733 65.5908 51.4693 65.7648 51.3373 65.9328C51.2053 66.0988 51.0553 66.2758 50.8873 66.4638C50.7213 66.6498 50.5803 66.8058 50.4643 66.9318C50.3483 67.0578 50.2503 67.1628 50.1703 67.2468C50.0923 67.3288 50.0263 67.3998 49.9723 67.4598C49.9203 67.5178 49.8743 67.5738 49.8343 67.6278C49.8963 67.5638 49.9703 67.5268 50.0563 67.5168C50.1423 67.5048 50.2603 67.4988 50.4103 67.4988H51.8323V67.9998H48.8083Z" fill="black"/>
<path d="M53.969 68.0898C53.641 68.0898 53.362 68.0258 53.132 67.8978C52.902 67.7678 52.73 67.5998 52.616 67.3938C52.504 67.1858 52.459 66.9658 52.481 66.7338H53.051C53.047 66.8678 53.075 66.9988 53.135 67.1268C53.197 67.2548 53.298 67.3608 53.438 67.4448C53.578 67.5268 53.763 67.5678 53.993 67.5678C54.159 67.5678 54.312 67.5378 54.452 67.4778C54.594 67.4158 54.708 67.3158 54.794 67.1778C54.88 67.0398 54.923 66.8558 54.923 66.6258C54.923 66.3218 54.844 66.0908 54.686 65.9328C54.528 65.7748 54.298 65.6958 53.996 65.6958C53.802 65.6958 53.621 65.7278 53.453 65.7918C53.285 65.8558 53.142 65.9418 53.024 66.0498L52.568 65.8818L52.859 63.6378H55.289V64.1538H53.357L53.066 65.7378C53.148 65.5678 53.285 65.4378 53.477 65.3478C53.669 65.2558 53.899 65.2098 54.167 65.2098C54.337 65.2098 54.502 65.2338 54.662 65.2818C54.822 65.3278 54.965 65.4038 55.091 65.5098C55.219 65.6158 55.32 65.7578 55.394 65.9358C55.47 66.1118 55.508 66.3288 55.508 66.5868C55.508 66.8868 55.446 67.1498 55.322 67.3758C55.198 67.6018 55.021 67.7778 54.791 67.9038C54.563 68.0278 54.289 68.0898 53.969 68.0898Z" fill="black"/>
<path d="M61.1673 66.3138C61.0033 66.3138 60.8673 66.2578 60.7593 66.1458C60.6513 66.0318 60.5973 65.8898 60.5973 65.7198C60.5973 65.5478 60.6513 65.4058 60.7593 65.2938C60.8673 65.1798 61.0033 65.1228 61.1673 65.1228C61.3313 65.1228 61.4673 65.1798 61.5753 65.2938C61.6853 65.4058 61.7403 65.5478 61.7403 65.7198C61.7403 65.8898 61.6863 66.0318 61.5783 66.1458C61.4703 66.2578 61.3333 66.3138 61.1673 66.3138Z" fill="black"/>
<path d="M68.3836 68.0598C68.0836 68.0598 67.8166 68.0118 67.5826 67.9158C67.3506 67.8198 67.1676 67.6708 67.0336 67.4688C66.8996 67.2668 66.8306 67.0058 66.8266 66.6858H67.3786C67.3826 66.9018 67.4326 67.0738 67.5286 67.2018C67.6246 67.3278 67.7496 67.4188 67.9036 67.4748C68.0596 67.5288 68.2266 67.5558 68.4046 67.5558C68.6106 67.5558 68.7806 67.5258 68.9146 67.4658C69.0506 67.4038 69.1526 67.3228 69.2206 67.2228C69.2886 67.1228 69.3226 67.0158 69.3226 66.9018C69.3226 66.7378 69.2806 66.6048 69.1966 66.5028C69.1126 66.4008 68.9926 66.3158 68.8366 66.2478C68.6806 66.1778 68.4956 66.1088 68.2816 66.0408C68.0456 65.9648 67.8306 65.8688 67.6366 65.7528C67.4446 65.6368 67.2916 65.4948 67.1776 65.3268C67.0636 65.1568 67.0066 64.9558 67.0066 64.7238C67.0066 64.4678 67.0696 64.2548 67.1956 64.0848C67.3216 63.9128 67.4896 63.7838 67.6996 63.6978C67.9116 63.6118 68.1446 63.5688 68.3986 63.5688C68.7786 63.5688 69.0886 63.6698 69.3286 63.8718C69.5686 64.0718 69.7136 64.3768 69.7636 64.7868H69.2296C69.2116 64.6508 69.1706 64.5288 69.1066 64.4208C69.0446 64.3128 68.9546 64.2278 68.8366 64.1658C68.7186 64.1018 68.5666 64.0698 68.3806 64.0698C68.1246 64.0698 67.9216 64.1258 67.7716 64.2378C67.6216 64.3498 67.5466 64.5048 67.5466 64.7028C67.5466 64.8428 67.5736 64.9628 67.6276 65.0628C67.6836 65.1608 67.7796 65.2508 67.9156 65.3328C68.0536 65.4128 68.2436 65.4968 68.4856 65.5848C68.6596 65.6468 68.8286 65.7118 68.9926 65.7798C69.1586 65.8478 69.3066 65.9288 69.4366 66.0228C69.5686 66.1148 69.6736 66.2298 69.7516 66.3678C69.8296 66.5038 69.8686 66.6728 69.8686 66.8748C69.8706 67.1228 69.8096 67.3358 69.6856 67.5138C69.5636 67.6898 69.3906 67.8248 69.1666 67.9188C68.9446 68.0128 68.6836 68.0598 68.3836 68.0598Z" fill="black"/>
<path d="M71.6422 68.0358C71.3342 68.0358 71.0902 67.9538 70.9102 67.7898C70.7322 67.6238 70.6432 67.4008 70.6432 67.1208C70.6432 66.8768 70.7222 66.6778 70.8802 66.5238C71.0402 66.3678 71.2832 66.2588 71.6092 66.1968C71.7352 66.1728 71.8632 66.1528 71.9932 66.1368C72.1232 66.1208 72.2492 66.1078 72.3712 66.0978C72.4932 66.0858 72.6042 66.0778 72.7042 66.0738V65.8218C72.7042 65.5758 72.6472 65.3998 72.5332 65.2938C72.4212 65.1878 72.2462 65.1348 72.0082 65.1348C71.7582 65.1348 71.5692 65.1868 71.4412 65.2908C71.3152 65.3928 71.2562 65.5688 71.2642 65.8188H70.7422C70.7182 65.5868 70.7552 65.3848 70.8532 65.2128C70.9532 65.0388 71.1022 64.9038 71.3002 64.8078C71.5002 64.7118 71.7372 64.6638 72.0112 64.6638C72.4152 64.6638 72.7212 64.7638 72.9292 64.9638C73.1372 65.1618 73.2412 65.4538 73.2412 65.8398V67.9998H72.7072L72.7042 67.2888C72.6622 67.4348 72.5902 67.5648 72.4882 67.6788C72.3862 67.7908 72.2622 67.8788 72.1162 67.9428C71.9722 68.0048 71.8142 68.0358 71.6422 68.0358ZM71.8012 67.5948C71.9352 67.5948 72.0662 67.5698 72.1942 67.5198C72.3242 67.4678 72.4362 67.4008 72.5302 67.3188C72.6242 67.2348 72.6822 67.1448 72.7042 67.0488V66.4128C72.6322 66.4168 72.5482 66.4248 72.4522 66.4368C72.3582 66.4468 72.2642 66.4598 72.1702 66.4758C72.0762 66.4898 71.9932 66.5048 71.9212 66.5208C71.6652 66.5768 71.4862 66.6488 71.3842 66.7368C71.2822 66.8248 71.2312 66.9428 71.2312 67.0908C71.2312 67.2468 71.2802 67.3698 71.3782 67.4598C71.4782 67.5478 71.6192 67.5928 71.8012 67.5948Z" fill="black"/>
<path d="M74.3339 67.9998V64.7208H74.8169L74.8739 65.9088L74.8169 65.7078C74.8609 65.3698 74.9749 65.1108 75.1589 64.9308C75.3429 64.7488 75.5839 64.6578 75.8819 64.6578C76.1859 64.6578 76.4179 64.7558 76.5779 64.9518C76.7399 65.1478 76.8209 65.4298 76.8209 65.7978V67.9998H76.2629V65.9808C76.2629 65.7008 76.2169 65.4978 76.1249 65.3718C76.0349 65.2438 75.8879 65.1798 75.6839 65.1798C75.5139 65.1798 75.3599 65.2288 75.2219 65.3268C75.0839 65.4228 74.9739 65.5568 74.8919 65.7288V67.9998H74.3339Z" fill="black"/>
<path d="M81.4632 67.9998V63.6378H84.1122V64.1208H81.7932L82.0272 63.8868V65.7048L81.8082 65.5428H83.8572V66.0258H81.9342L82.0272 65.8938V67.9998H81.4632Z" fill="black"/>
<path d="M84.9019 67.9998V67.5468H87.1849V67.9998H84.9019ZM84.8689 65.2368V64.7208H85.8289L85.8499 65.2368H84.8689ZM85.5439 67.9398V65.5548C85.5439 65.4448 85.5619 65.3678 85.5979 65.3238C85.6359 65.2798 85.6969 65.2508 85.7809 65.2368L85.5439 65.0598V64.7208H86.0269L86.0659 65.5998C86.1159 65.4118 86.1949 65.2478 86.3029 65.1078C86.4109 64.9658 86.5379 64.8558 86.6839 64.7778C86.8299 64.6978 86.9819 64.6578 87.1399 64.6578C87.4119 64.6578 87.6229 64.7588 87.7729 64.9608C87.9229 65.1608 87.9929 65.4668 87.9829 65.8788H87.4369C87.4329 65.6248 87.3899 65.4448 87.3079 65.3388C87.2279 65.2328 87.0989 65.1798 86.9209 65.1798C86.7609 65.1798 86.6039 65.2418 86.4499 65.3658C86.2959 65.4878 86.1799 65.6358 86.1019 65.8098V67.3098C86.1019 67.3738 86.0869 67.4258 86.0569 67.4658C86.0289 67.5038 85.9829 67.5308 85.9189 67.5468L86.1019 67.6578V67.9398H85.5439Z" fill="black"/>
<path d="M89.6305 68.0358C89.3225 68.0358 89.0785 67.9538 88.8985 67.7898C88.7205 67.6238 88.6315 67.4008 88.6315 67.1208C88.6315 66.8768 88.7105 66.6778 88.8685 66.5238C89.0285 66.3678 89.2715 66.2588 89.5975 66.1968C89.7235 66.1728 89.8515 66.1528 89.9815 66.1368C90.1115 66.1208 90.2375 66.1078 90.3595 66.0978C90.4815 66.0858 90.5925 66.0778 90.6925 66.0738V65.8218C90.6925 65.5758 90.6355 65.3998 90.5215 65.2938C90.4095 65.1878 90.2345 65.1348 89.9965 65.1348C89.7465 65.1348 89.5575 65.1868 89.4295 65.2908C89.3035 65.3928 89.2445 65.5688 89.2525 65.8188H88.7305C88.7065 65.5868 88.7435 65.3848 88.8415 65.2128C88.9415 65.0388 89.0905 64.9038 89.2885 64.8078C89.4885 64.7118 89.7255 64.6638 89.9995 64.6638C90.4035 64.6638 90.7095 64.7638 90.9175 64.9638C91.1255 65.1618 91.2295 65.4538 91.2295 65.8398V67.9998H90.6955L90.6925 67.2888C90.6505 67.4348 90.5785 67.5648 90.4765 67.6788C90.3745 67.7908 90.2505 67.8788 90.1045 67.9428C89.9605 68.0048 89.8025 68.0358 89.6305 68.0358ZM89.7895 67.5948C89.9235 67.5948 90.0545 67.5698 90.1825 67.5198C90.3125 67.4678 90.4245 67.4008 90.5185 67.3188C90.6125 67.2348 90.6705 67.1448 90.6925 67.0488V66.4128C90.6205 66.4168 90.5365 66.4248 90.4405 66.4368C90.3465 66.4468 90.2525 66.4598 90.1585 66.4758C90.0645 66.4898 89.9815 66.5048 89.9095 66.5208C89.6535 66.5768 89.4745 66.6488 89.3725 66.7368C89.2705 66.8248 89.2195 66.9428 89.2195 67.0908C89.2195 67.2468 89.2685 67.3698 89.3665 67.4598C89.4665 67.5478 89.6075 67.5928 89.7895 67.5948Z" fill="black"/>
<path d="M92.3222 67.9998V64.7208H92.8052L92.8622 65.9088L92.8052 65.7078C92.8492 65.3698 92.9632 65.1108 93.1472 64.9308C93.3312 64.7488 93.5722 64.6578 93.8702 64.6578C94.1742 64.6578 94.4062 64.7558 94.5662 64.9518C94.7282 65.1478 94.8092 65.4298 94.8092 65.7978V67.9998H94.2512V65.9808C94.2512 65.7008 94.2052 65.4978 94.1132 65.3718C94.0232 65.2438 93.8762 65.1798 93.6722 65.1798C93.5022 65.1798 93.3482 65.2288 93.2102 65.3268C93.0722 65.4228 92.9622 65.5568 92.8802 65.7288V67.9998H92.3222Z" fill="black"/>
<path d="M97.2428 68.0538C96.9468 68.0538 96.6898 67.9848 96.4718 67.8468C96.2538 67.7068 96.0838 67.5108 95.9618 67.2588C95.8418 67.0048 95.7818 66.7058 95.7818 66.3618C95.7818 65.9998 95.8428 65.6928 95.9648 65.4408C96.0888 65.1868 96.2588 64.9938 96.4748 64.8618C96.6928 64.7298 96.9408 64.6638 97.2188 64.6638C97.4928 64.6638 97.7248 64.7218 97.9148 64.8378C98.1048 64.9538 98.2498 65.1078 98.3498 65.2998C98.4498 65.4918 98.5018 65.7018 98.5058 65.9298H97.9508C97.9468 65.8338 97.9298 65.7398 97.8998 65.6478C97.8718 65.5538 97.8278 65.4698 97.7678 65.3958C97.7098 65.3198 97.6348 65.2598 97.5428 65.2158C97.4508 65.1718 97.3388 65.1498 97.2068 65.1498C96.9168 65.1478 96.7008 65.2538 96.5588 65.4678C96.4168 65.6798 96.3458 65.9718 96.3458 66.3438C96.3458 66.7398 96.4228 67.0428 96.5768 67.2528C96.7328 67.4608 96.9608 67.5648 97.2608 67.5648C97.4088 67.5648 97.5318 67.5428 97.6298 67.4988C97.7278 67.4528 97.8028 67.3928 97.8548 67.3188C97.9068 67.2428 97.9378 67.1608 97.9478 67.0728H98.4908C98.4848 67.2608 98.4268 67.4288 98.3168 67.5768C98.2088 67.7248 98.0618 67.8418 97.8758 67.9278C97.6918 68.0118 97.4808 68.0538 97.2428 68.0538Z" fill="black"/>
<path d="M100.699 67.9218V65.6058C100.699 65.5058 100.717 65.4218 100.753 65.3538C100.789 65.2838 100.859 65.2448 100.963 65.2368L100.699 65.1348L100.678 64.8798L101.248 64.7268L101.239 67.9218H100.699ZM99.6315 67.9998V67.5468H102.214V67.9998H99.6315ZM99.5415 65.2368V64.7268H101.248L101.107 65.2368H99.5415ZM100.948 64.1508C100.826 64.1508 100.722 64.1088 100.636 64.0248C100.552 63.9408 100.51 63.8318 100.51 63.6978C100.51 63.5618 100.552 63.4518 100.636 63.3678C100.722 63.2818 100.826 63.2388 100.948 63.2388C101.07 63.2388 101.173 63.2818 101.257 63.3678C101.343 63.4518 101.386 63.5618 101.386 63.6978C101.386 63.8318 101.343 63.9408 101.257 64.0248C101.171 64.1088 101.068 64.1508 100.948 64.1508Z" fill="black"/>
<path d="M104.375 68.0508C104.219 68.0508 104.065 68.0338 103.913 67.9998C103.761 67.9678 103.621 67.9148 103.493 67.8408C103.365 67.7648 103.26 67.6628 103.178 67.5348C103.098 67.4068 103.05 67.2468 103.034 67.0548H103.61C103.63 67.2428 103.715 67.3788 103.865 67.4628C104.015 67.5468 104.187 67.5888 104.381 67.5888C104.605 67.5888 104.783 67.5578 104.915 67.4958C105.049 67.4318 105.116 67.3108 105.116 67.1328C105.116 67.0268 105.084 66.9408 105.02 66.8748C104.958 66.8088 104.867 66.7538 104.747 66.7098C104.629 66.6638 104.485 66.6198 104.315 66.5778C104.175 66.5438 104.036 66.5058 103.898 66.4638C103.762 66.4198 103.638 66.3628 103.526 66.2928C103.416 66.2228 103.328 66.1298 103.262 66.0138C103.196 65.8978 103.163 65.7498 103.163 65.5698C103.163 65.3918 103.21 65.2348 103.304 65.0988C103.4 64.9628 103.538 64.8568 103.718 64.7808C103.898 64.7048 104.116 64.6668 104.372 64.6668C104.578 64.6668 104.769 64.6988 104.945 64.7628C105.123 64.8248 105.268 64.9258 105.38 65.0658C105.494 65.2038 105.557 65.3878 105.569 65.6178H105.008C105.002 65.5218 104.976 65.4368 104.93 65.3628C104.884 65.2888 104.815 65.2308 104.723 65.1888C104.631 65.1468 104.513 65.1258 104.369 65.1258C104.237 65.1258 104.121 65.1398 104.021 65.1678C103.921 65.1958 103.843 65.2418 103.787 65.3058C103.731 65.3698 103.703 65.4558 103.703 65.5638C103.703 65.6698 103.736 65.7568 103.802 65.8248C103.87 65.8928 103.963 65.9488 104.081 65.9928C104.199 66.0348 104.334 66.0748 104.486 66.1128C104.618 66.1448 104.754 66.1828 104.894 66.2268C105.034 66.2708 105.163 66.3278 105.281 66.3978C105.399 66.4678 105.494 66.5588 105.566 66.6708C105.64 66.7808 105.677 66.9198 105.677 67.0878C105.675 67.3758 105.57 67.6088 105.362 67.7868C105.156 67.9628 104.827 68.0508 104.375 68.0508Z" fill="black"/>
<path d="M108.036 68.0538C107.74 68.0538 107.483 67.9848 107.265 67.8468C107.047 67.7068 106.877 67.5108 106.755 67.2588C106.635 67.0048 106.575 66.7058 106.575 66.3618C106.575 65.9998 106.636 65.6928 106.758 65.4408C106.882 65.1868 107.052 64.9938 107.268 64.8618C107.486 64.7298 107.734 64.6638 108.012 64.6638C108.286 64.6638 108.518 64.7218 108.708 64.8378C108.898 64.9538 109.043 65.1078 109.143 65.2998C109.243 65.4918 109.295 65.7018 109.299 65.9298H108.744C108.74 65.8338 108.723 65.7398 108.693 65.6478C108.665 65.5538 108.621 65.4698 108.561 65.3958C108.503 65.3198 108.428 65.2598 108.336 65.2158C108.244 65.1718 108.132 65.1498 108 65.1498C107.71 65.1478 107.494 65.2538 107.352 65.4678C107.21 65.6798 107.139 65.9718 107.139 66.3438C107.139 66.7398 107.216 67.0428 107.37 67.2528C107.526 67.4608 107.754 67.5648 108.054 67.5648C108.202 67.5648 108.325 67.5428 108.423 67.4988C108.521 67.4528 108.596 67.3928 108.648 67.3188C108.7 67.2428 108.731 67.1608 108.741 67.0728H109.284C109.278 67.2608 109.22 67.4288 109.11 67.5768C109.002 67.7248 108.855 67.8418 108.669 67.9278C108.485 68.0118 108.274 68.0538 108.036 68.0538Z" fill="black"/>
<path d="M111.534 68.0448C111.256 68.0448 111.009 67.9798 110.793 67.8498C110.579 67.7178 110.411 67.5258 110.289 67.2738C110.167 67.0198 110.106 66.7098 110.106 66.3438C110.106 65.9918 110.169 65.6908 110.295 65.4408C110.421 65.1888 110.592 64.9958 110.808 64.8618C111.024 64.7278 111.266 64.6608 111.534 64.6608C111.82 64.6608 112.07 64.7278 112.284 64.8618C112.498 64.9958 112.664 65.1888 112.782 65.4408C112.902 65.6908 112.962 65.9918 112.962 66.3438C112.962 66.7118 112.898 67.0228 112.77 67.2768C112.644 67.5288 112.473 67.7198 112.257 67.8498C112.041 67.9798 111.8 68.0448 111.534 68.0448ZM111.534 67.5528C111.788 67.5528 111.994 67.4538 112.152 67.2558C112.312 67.0558 112.392 66.7518 112.392 66.3438C112.392 65.9558 112.314 65.6608 112.158 65.4588C112.004 65.2548 111.796 65.1528 111.534 65.1528C111.28 65.1528 111.073 65.2548 110.913 65.4588C110.755 65.6608 110.676 65.9558 110.676 66.3438C110.676 66.7378 110.755 67.0378 110.913 67.2438C111.073 67.4498 111.28 67.5528 111.534 67.5528Z" fill="black"/>
<path d="M45.378 6.29605V2.15605H45.942L45.978 2.43805C46.106 2.32205 46.246 2.23605 46.398 2.18005C46.55 2.12405 46.73 2.09605 46.938 2.09605C47.346 2.09605 47.664 2.20805 47.892 2.43205C48.12 2.65205 48.234 3.01805 48.234 3.53005C48.234 4.04205 48.116 4.42605 47.88 4.68205C47.644 4.93405 47.322 5.06005 46.914 5.06005C46.57 5.06005 46.276 4.98005 46.032 4.82005V6.29605H45.378ZM46.746 4.56805C47.298 4.56805 47.574 4.22005 47.574 3.52405C47.574 3.18805 47.512 2.95005 47.388 2.81005C47.264 2.66605 47.056 2.59405 46.764 2.59405C46.472 2.59405 46.228 2.69405 46.032 2.89405V4.31605C46.124 4.39205 46.226 4.45405 46.338 4.50205C46.454 4.54605 46.59 4.56805 46.746 4.56805Z" fill="black"/>
<path d="M48.8702 5.00005V2.15605H49.4702L49.5062 2.48605C49.6422 2.39805 49.8042 2.31805 49.9922 2.24605C50.1802 2.17405 50.3662 2.12405 50.5502 2.09605V2.59405C50.4382 2.61405 50.3162 2.64405 50.1842 2.68405C50.0562 2.72005 49.9342 2.76205 49.8182 2.81005C49.7022 2.85405 49.6042 2.90005 49.5242 2.94805V5.00005H48.8702Z" fill="black"/>
<path d="M52.3493 5.06005C51.8533 5.06005 51.4693 4.93805 51.1973 4.69405C50.9253 4.45005 50.7892 4.07605 50.7892 3.57205C50.7892 3.11605 50.9052 2.75605 51.1372 2.49205C51.3692 2.22805 51.7212 2.09605 52.1932 2.09605C52.6252 2.09605 52.9492 2.21005 53.1652 2.43805C53.3852 2.66205 53.4953 2.95205 53.4953 3.30805V3.83605H51.4132C51.4452 4.11205 51.5452 4.30205 51.7132 4.40605C51.8812 4.51005 52.1373 4.56205 52.4813 4.56205C52.6253 4.56205 52.7733 4.54805 52.9253 4.52005C53.0773 4.49205 53.2093 4.45605 53.3213 4.41205V4.89205C53.1933 4.94805 53.0453 4.99005 52.8773 5.01805C52.7133 5.04605 52.5373 5.06005 52.3493 5.06005ZM51.4132 3.41005H52.9193V3.21205C52.9193 3.01605 52.8653 2.86405 52.7573 2.75605C52.6493 2.64405 52.4673 2.58805 52.2113 2.58805C51.9073 2.58805 51.6972 2.65405 51.5812 2.78605C51.4692 2.91805 51.4132 3.12605 51.4132 3.41005Z" fill="black"/>
<path d="M55.0506 5.06005C54.8546 5.06005 54.6666 5.04605 54.4866 5.01805C54.3106 4.99005 54.1646 4.95605 54.0486 4.91605V4.36405C54.1846 4.41605 54.3346 4.45605 54.4986 4.48405C54.6626 4.51205 54.8186 4.52605 54.9666 4.52605C55.1906 4.52605 55.3506 4.50605 55.4466 4.46605C55.5426 4.42605 55.5906 4.34805 55.5906 4.23205C55.5906 4.14805 55.5606 4.08205 55.5006 4.03405C55.4446 3.98605 55.3586 3.94205 55.2426 3.90205C55.1306 3.86205 54.9866 3.81405 54.8106 3.75805C54.6426 3.70205 54.4966 3.64205 54.3726 3.57805C54.2486 3.51005 54.1526 3.42405 54.0846 3.32005C54.0166 3.21605 53.9826 3.08005 53.9826 2.91205C53.9826 2.65205 54.0766 2.45205 54.2646 2.31205C54.4526 2.16805 54.7546 2.09605 55.1706 2.09605C55.3346 2.09605 55.4906 2.10805 55.6386 2.13205C55.7866 2.15605 55.9126 2.18605 56.0166 2.22205V2.76805C55.9046 2.72405 55.7806 2.69005 55.6446 2.66605C55.5126 2.64205 55.3886 2.63005 55.2726 2.63005C55.0646 2.63005 54.9066 2.64805 54.7986 2.68405C54.6946 2.72005 54.6426 2.79205 54.6426 2.90005C54.6426 3.01205 54.6966 3.09205 54.8046 3.14005C54.9166 3.18405 55.0946 3.24605 55.3386 3.32605C55.5626 3.39405 55.7406 3.46605 55.8726 3.54205C56.0046 3.61805 56.0986 3.71005 56.1546 3.81805C56.2146 3.92205 56.2446 4.05805 56.2446 4.22605C56.2446 4.50605 56.1426 4.71605 55.9386 4.85605C55.7346 4.99205 55.4386 5.06005 55.0506 5.06005Z" fill="black"/>
<path d="M58.2379 5.06005C57.7419 5.06005 57.3579 4.93805 57.0859 4.69405C56.8139 4.45005 56.6779 4.07605 56.6779 3.57205C56.6779 3.11605 56.7939 2.75605 57.0259 2.49205C57.2579 2.22805 57.6099 2.09605 58.0819 2.09605C58.5139 2.09605 58.8379 2.21005 59.0539 2.43805C59.2739 2.66205 59.3839 2.95205 59.3839 3.30805V3.83605H57.3019C57.3339 4.11205 57.4339 4.30205 57.6019 4.40605C57.7699 4.51005 58.0259 4.56205 58.3699 4.56205C58.5139 4.56205 58.6619 4.54805 58.8139 4.52005C58.9659 4.49205 59.0979 4.45605 59.2099 4.41205V4.89205C59.0819 4.94805 58.9339 4.99005 58.7659 5.01805C58.6019 5.04605 58.4259 5.06005 58.2379 5.06005ZM57.3019 3.41005H58.8079V3.21205C58.8079 3.01605 58.7539 2.86405 58.6459 2.75605C58.5379 2.64405 58.3559 2.58805 58.0999 2.58805C57.7959 2.58805 57.5859 2.65405 57.4699 2.78605C57.3579 2.91805 57.3019 3.12605 57.3019 3.41005Z" fill="black"/>
<path d="M60.0206 5.00005V2.15605H60.6206L60.6506 2.45605C60.7786 2.35605 60.9306 2.27205 61.1066 2.20405C61.2866 2.13205 61.4846 2.09605 61.7006 2.09605C62.0686 2.09605 62.3366 2.18205 62.5046 2.35405C62.6726 2.52605 62.7566 2.79405 62.7566 3.15805V5.00005H62.1086V3.18805C62.1086 2.96805 62.0626 2.81405 61.9706 2.72605C61.8826 2.63805 61.7146 2.59405 61.4666 2.59405C61.3186 2.59405 61.1726 2.62405 61.0286 2.68405C60.8886 2.74405 60.7706 2.82205 60.6746 2.91805V5.00005H60.0206Z" fill="black"/>
<path d="M64.5753 5.06005C64.2713 5.06005 64.0433 4.98005 63.8913 4.82005C63.7433 4.65605 63.6693 4.43405 63.6693 4.15405V2.66605H63.2493V2.15605H63.6693V1.50205L64.3173 1.30405V2.15605H65.0733L65.0313 2.66605H64.3173V4.11805C64.3173 4.28205 64.3553 4.39805 64.4313 4.46605C64.5073 4.53005 64.6313 4.56205 64.8033 4.56205C64.9113 4.56205 65.0253 4.54205 65.1453 4.50205V4.96406C64.9893 5.02806 64.7993 5.06005 64.5753 5.06005Z" fill="black"/>
<path d="M67.0856 5.06005C66.5896 5.06005 66.2056 4.93805 65.9336 4.69405C65.6616 4.45005 65.5256 4.07605 65.5256 3.57205C65.5256 3.11605 65.6416 2.75605 65.8736 2.49205C66.1056 2.22805 66.4576 2.09605 66.9296 2.09605C67.3616 2.09605 67.6856 2.21005 67.9016 2.43805C68.1216 2.66205 68.2316 2.95205 68.2316 3.30805V3.83605H66.1496C66.1816 4.11205 66.2816 4.30205 66.4496 4.40605C66.6176 4.51005 66.8736 4.56205 67.2176 4.56205C67.3616 4.56205 67.5096 4.54805 67.6616 4.52005C67.8136 4.49205 67.9456 4.45605 68.0576 4.41205V4.89205C67.9296 4.94805 67.7816 4.99005 67.6136 5.01805C67.4496 5.04605 67.2736 5.06005 67.0856 5.06005ZM66.1496 3.41005H67.6556V3.21205C67.6556 3.01605 67.6016 2.86405 67.4936 2.75605C67.3856 2.64405 67.2036 2.58805 66.9476 2.58805C66.6436 2.58805 66.4336 2.65405 66.3176 2.78605C66.2056 2.91805 66.1496 3.12605 66.1496 3.41005Z" fill="black"/>
<path d="M70.0442 5.06005C69.7882 5.06005 69.5622 5.01605 69.3662 4.92805C69.1702 4.84005 69.0182 4.69405 68.9102 4.49005C68.8022 4.28605 68.7482 4.01205 68.7482 3.66805C68.7482 3.32805 68.8062 3.04205 68.9222 2.81005C69.0382 2.57405 69.1982 2.39605 69.4022 2.27605C69.6102 2.15605 69.8442 2.09605 70.1042 2.09605C70.2762 2.09605 70.4282 2.11605 70.5602 2.15605C70.6962 2.19605 70.8262 2.25805 70.9502 2.34205V0.956055H71.6042V5.00005H71.0462L71.0042 4.71805C70.8762 4.83405 70.7362 4.92005 70.5842 4.97605C70.4322 5.03205 70.2522 5.06005 70.0442 5.06005ZM70.2182 4.56805C70.5102 4.56805 70.7542 4.46805 70.9502 4.26805V2.84605C70.7622 2.67805 70.5262 2.59405 70.2422 2.59405C69.9662 2.59405 69.7582 2.68605 69.6182 2.87005C69.4782 3.05405 69.4082 3.32205 69.4082 3.67405C69.4082 4.01405 69.4722 4.24805 69.6002 4.37605C69.7322 4.50405 69.9382 4.56805 70.2182 4.56805Z" fill="black"/>
<path d="M74.6312 5.06005C74.4512 5.06005 74.2832 5.02806 74.1272 4.96406C73.9752 4.90006 73.8532 4.80405 73.7612 4.67605C73.6692 4.54405 73.6232 4.38205 73.6232 4.19005C73.6232 3.91805 73.7152 3.70005 73.8992 3.53605C74.0872 3.36805 74.3752 3.28405 74.7632 3.28405H75.6752V3.15805C75.6752 3.02205 75.6532 2.91405 75.6092 2.83405C75.5692 2.75405 75.4932 2.69605 75.3812 2.66005C75.2732 2.62405 75.1132 2.60605 74.9012 2.60605C74.5652 2.60605 74.2512 2.65605 73.9592 2.75605V2.27005C74.0872 2.21805 74.2432 2.17605 74.4272 2.14405C74.6112 2.11205 74.8092 2.09605 75.0212 2.09605C75.4372 2.09605 75.7532 2.18005 75.9692 2.34805C76.1892 2.51605 76.2992 2.79005 76.2992 3.17005V5.00005H75.7412L75.6992 4.71205C75.5832 4.82405 75.4392 4.91005 75.2672 4.97005C75.0992 5.03005 74.8872 5.06005 74.6312 5.06005ZM74.8052 4.59205C75.0012 4.59205 75.1712 4.56005 75.3152 4.49605C75.4632 4.42805 75.5832 4.33805 75.6752 4.22605V3.72805H74.7752C74.5832 3.72805 74.4432 3.76605 74.3552 3.84205C74.2712 3.91405 74.2292 4.02605 74.2292 4.17805C74.2292 4.32605 74.2792 4.43205 74.3792 4.49605C74.4792 4.56005 74.6212 4.59205 74.8052 4.59205Z" fill="black"/>
<path d="M78.1105 5.06005C77.8065 5.06005 77.5785 4.98005 77.4265 4.82005C77.2785 4.65605 77.2045 4.43405 77.2045 4.15405V2.66605H76.7845V2.15605H77.2045V1.50205L77.8525 1.30405V2.15605H78.6085L78.5665 2.66605H77.8525V4.11805C77.8525 4.28205 77.8905 4.39805 77.9665 4.46605C78.0425 4.53005 78.1665 4.56205 78.3385 4.56205C78.4465 4.56205 78.5605 4.54205 78.6805 4.50205V4.96406C78.5245 5.02806 78.3345 5.06005 78.1105 5.06005Z" fill="black"/>
</svg>
