<svg width="128" height="128" viewBox="0 0 128 128" fill="none" xmlns="http://www.w3.org/2000/svg">
<rect width="128" height="128" fill="#1E1E1E"/>
<rect width="128" height="128" fill="black"/>
<path d="M17.0568 93V34.8182H29.358V82.858H54.3011V93H17.0568ZM98.7614 53.625C98.3636 52.2424 97.8049 51.0208 97.0852 49.9602C96.3655 48.8807 95.4849 47.9716 94.4432 47.233C93.4205 46.4754 92.2462 45.8977 90.9205 45.5C89.6136 45.1023 88.1648 44.9034 86.5739 44.9034C83.6004 44.9034 80.9867 45.642 78.733 47.1193C76.4981 48.5966 74.7557 50.7462 73.5057 53.5682C72.2557 56.3712 71.6307 59.7992 71.6307 63.8523C71.6307 67.9053 72.2462 71.3523 73.4773 74.1932C74.7083 77.0341 76.4508 79.2027 78.7045 80.6989C80.9583 82.1761 83.6193 82.9148 86.6875 82.9148C89.4716 82.9148 91.8485 82.4223 93.8182 81.4375C95.8068 80.4337 97.322 79.0227 98.3636 77.2045C99.4242 75.3864 99.9545 73.2367 99.9545 70.7557L102.455 71.125H87.4545V61.8636H111.801V69.1932C111.801 74.3068 110.722 78.7008 108.562 82.375C106.403 86.0303 103.43 88.8523 99.642 90.8409C95.8542 92.8106 91.517 93.7955 86.6307 93.7955C81.1761 93.7955 76.3845 92.5928 72.2557 90.1875C68.1269 87.7633 64.9072 84.3258 62.5966 79.875C60.3049 75.4053 59.1591 70.1023 59.1591 63.9659C59.1591 59.25 59.8409 55.0455 61.2045 51.3523C62.5871 47.6402 64.5189 44.4962 67 41.9205C69.4811 39.3447 72.3693 37.3845 75.6648 36.0398C78.9602 34.6951 82.5303 34.0227 86.375 34.0227C89.6705 34.0227 92.7386 34.5057 95.5795 35.4716C98.4205 36.4186 100.939 37.7633 103.136 39.5057C105.352 41.2481 107.161 43.322 108.562 45.7273C109.964 48.1136 110.864 50.7462 111.261 53.625H98.7614Z" fill="white"/>
</svg>
